<svg xmlns="http://www.w3.org/2000/svg" width="24" height="24" viewBox="0 0 24 24" aria-hidden="true" focusable="false">
  <g>
    <path d="M21.805 12.023c0-.656-.07-1.156-.156-1.652H12v3.327h5.617c-.242 1.242-1.484 3.648-5.617 3.648-3.375 0-6.125-2.789-6.125-6.148 0-3.359 2.75-6.148 6.125-6.148 1.922 0 3.211.82 3.953 1.523l2.703-2.625C17.984 2.98 15.781 2.027 13.039 2.027c-5.523 0-10 4.477-10 10s4.477 10 10 10c5.773 0 9.594-4.055 9.594-9.773z" fill="#4285F4"/>
    <path d="M12.272 7.272c1.563 0 2.594.672 3.188 1.234l2.344-2.344C16.188 4.844 14.438 4 12.272 4 8.844 4 5.844 6.844 5.094 10.094l2.75 2.125c.469-1.406 1.781-2.947 4.428-2.947z" fill="#34A853"/>
    <path d="M12.272 20c2.344 0 4.344-.781 5.781-2.094l-2.703-2.188c-.719.469-1.656.75-3.078.75-2.344 0-4.344-1.594-5.062-3.75l-2.75 2.125C4.781 17.406 8.031 20 12.272 20z" fill="#FBBC05"/>
    <path d="M23.344 12.563c0-.563-.047-.969-.125-1.438H12v3.281h5.188c-.219 1.125-1.563 3.297-5.188 3.297-1.781 0-3.344-.594-4.406-1.594l-2.75 2.125C6.031 19.406 8.781 21 12.272 21c5.625 0 9.344-3.969 9.344-9.563z" fill="#EA4335"/>
  </g>
</svg>
