<svg xmlns="http://www.w3.org/2000/svg" width="24" height="24" viewBox="0 0 24 24" aria-hidden="true" focusable="false">
  <g>
    <path d="M21.805 10.023h-9.765v3.977h5.617c-.242 1.242-1.484 3.648-5.617 3.648-3.375 0-6.125-2.789-6.125-6.148 0-3.359 2.75-6.148 6.125-6.148 1.922 0 3.211.82 3.953 1.523l2.703-2.625c-1.711-1.57-3.914-2.523-6.656-2.523-5.523 0-10 4.477-10 10s4.477 10 10 10c5.773 0 9.594-4.055 9.594-9.773 0-.656-.07-1.156-.156-1.652z" fill="#4285F4"/>
    <path d="M3.545 7.548l3.285 2.409c.895-1.7 2.66-2.909 4.67-2.909 1.27 0 2.41.438 3.305 1.16l2.48-2.48c-1.57-1.453-3.617-2.348-5.785-2.348-3.242 0-6.016 2.07-7.07 4.968z" fill="#34A853"/>
    <path d="M12 22c2.43 0 4.477-.805 5.953-2.188l-2.734-2.234c-.75.508-1.703.82-3.219.82-2.457 0-4.539-1.656-5.285-3.883l-3.32 2.57c1.508 3.008 4.734 5.015 8.605 5.015z" fill="#FBBC05"/>
    <path d="M21.805 10.023h-9.765v3.977h5.617c-.242 1.242-1.484 3.648-5.617 3.648-3.375 0-6.125-2.789-6.125-6.148 0-3.359 2.75-6.148 6.125-6.148 1.922 0 3.211.82 3.953 1.523l2.703-2.625c-1.711-1.57-3.914-2.523-6.656-2.523-5.523 0-10 4.477-10 10s4.477 10 10 10c5.773 0 9.594-4.055 9.594-9.773 0-.656-.07-1.156-.156-1.652z" fill="#EA4335"/>
  </g>
</svg>
